<?xml version="1.0" encoding="UTF-8" standalone="no"?>
<!DOCTYPE svg PUBLIC "-//W3C//DTD SVG 1.1//EN" "http://www.w3.org/Graphics/SVG/1.1/DTD/svg11.dtd">
<svg width="100%" height="100%" viewBox="0 0 609 626" version="1.1" xmlns="http://www.w3.org/2000/svg" xmlns:xlink="http://www.w3.org/1999/xlink" xml:space="preserve" xmlns:serif="http://www.serif.com/" style="fill-rule:evenodd;clip-rule:evenodd;stroke-linejoin:round;stroke-miterlimit:2;fill:#FFFFFF">
    <g transform="matrix(1.39683,0,0,1.39683,-123.253,-125.648)">
        <path d="M171.281,212.73L171.278,212.73L171.278,203.596C171.278,155.377 210.426,116.23 258.644,116.23L362.541,116.23C410.759,116.23 449.906,155.377 449.906,203.596L449.906,322.071C431.999,297.744 407.479,281.444 379.072,270.136L379.072,203.596C379.072,194.472 371.665,187.064 362.541,187.064L258.644,187.064C249.52,187.064 242.112,194.472 242.112,203.596L242.112,211.697C242.112,229.192 245.047,242.028 251.488,251.38C261.49,265.904 278.405,271.281 295.837,276.394C314.283,281.804 333.814,285.845 351.987,291.569C384.069,301.675 412.028,317.155 429.993,345C441.832,363.348 449.742,387.457 449.904,420.526L449.906,420.526L449.906,421.014L449.907,421.558L449.906,421.558L449.906,429.661C449.906,477.879 410.76,517.026 362.541,517.026L258.644,517.026C210.425,517.026 171.278,477.879 171.278,429.661L171.278,311.561C189.2,336.003 213.722,352.371 242.112,363.721L242.112,429.661C242.112,438.785 249.52,446.192 258.644,446.192L362.541,446.192C371.665,446.192 379.072,438.785 379.072,429.661L379.072,421.198C379.03,403.069 375.768,390.063 368.654,380.824C361.635,371.709 351.455,366.674 340.499,362.507C318.123,353.997 292.452,349.69 269.144,342.306C237.062,332.144 209.097,316.557 191.131,288.518C179.325,270.093 171.441,245.89 171.281,212.73Z"/>
    </g>
</svg>
